<svg version="1.2" xmlns="http://www.w3.org/2000/svg" viewBox="0 0 1000 1000" width="64" height="64">
	<style>
		.s0 { fill: none } 
		.s1 { fill: #ffffff } 
		.s2 { fill: #0070ba } 
		.s3 { fill: #66cb92 } 
		.s4 { fill: #9fcde0 } 
	</style>
	<g>
		<path fill-rule="evenodd" class="s0" d="m271 446.1c-49.44 0-89.4-39.96-89.4-89.4 0-49.44 39.96-89.4 89.4-89.4 49.44 0 89.4 39.96 89.4 89.4 0 49.44-39.96 89.4-89.4 89.4z"/>
		<path class="s0" d="m564.7 209c28.5 0 51.6-23.1 51.6-51.6 0-28.5-23.1-51.6-51.6-51.6-28.5 0-51.6 23.1-51.6 51.6 0 28.5 23.2 51.6 51.6 51.6z"/>
		<path class="s0" d="m786.8 629.8h23.8c0-2.7 2.2-4.9 4.9-5l-0.8-28.5z"/>
		<path class="s0" d="m582.3 594.6l-1.8 30.2c2.6 0.2 4.7 2.3 4.7 5h26.4z"/>
		<path class="s0" d="m450.8 178.2l23.1 1.7 1 3.4c2 7.1 4.9 14 8.6 20.5l1.7 3-15 17.6c-0.1 0.3 0 0.7 0.3 1l26.4 26.4c0.2 0.2 0.6 0.3 0.9 0.2l17.7-15 3 1.7c6.4 3.7 13.3 6.6 20.4 8.6l3.3 1 1.7 23.1c0.2 0.3 0.5 0.5 0.9 0.5h39.9c0.3 0 0.7-0.2 0.8-0.5l1.7-23.1 3.4-1c7.1-2 14-4.9 20.5-8.6l3-1.7 17.6 15c0.3 0.1 0.7 0 1-0.3l26.4-26.4c0.2-0.2 0.3-0.6 0.2-0.9l-15-17.6 1.7-3c3.7-6.4 6.6-13.3 8.6-20.5l1-3.4 23.1-1.7c0.3-0.2 0.5-0.5 0.5-0.9v-39.9c0-0.3-0.2-0.7-0.5-0.8l-23.1-1.7-1-3.4c-2-7.1-4.9-14-8.6-20.5l-1.7-3 15-17.6c0.1-0.3 0-0.7-0.2-0.9l-26.4-26.4c-0.2-0.2-0.6-0.3-0.9-0.2l-17.6 15-3-1.7c-6.4-3.7-13.3-6.6-20.5-8.6l-3.4-1-1.7-23.1c-0.2-0.3-0.5-0.5-0.8-0.5h-39.9c-0.3 0-0.6 0.2-0.8 0.5l-1.6 23.1-3.4 1c-7.1 2-14 4.9-20.5 8.6l-3 1.7-17.7-15c-0.3-0.1-0.7 0-1 0.3l-26.4 26.4c-0.2 0.2-0.3 0.6-0.2 0.9l15 17.6-1.7 3.1c-3.7 6.4-6.6 13.3-8.6 20.5l-1 3.4-23.1 1.7c-0.3 0.2-0.5 0.5-0.5 0.8v39.9c-0.1 0.2 0.1 0.6 0.4 0.7zm113.9-82.3c34 0 61.6 27.6 61.6 61.6 0 34-27.6 61.5-61.6 61.5-34 0-61.6-27.6-61.6-61.6 0-34 27.7-61.5 61.6-61.5z"/>
		<path class="s1" d="m860.9 782.6h-559.4c-11.6 0-21 9.4-21 21v95.8c0 11.6 9.4 21 21 21h56.5 119.6 207.2 119.6 56.5c11.6 0 21-9.4 21-21v-95.8c0-11.5-9.4-21-21-21zm-495.3 102.9c-17.7 0-32.2-14.4-32.2-32.2 0-17.8 14.4-32.2 32.2-32.2 17.7 0 32.2 14.4 32.2 32.2 0 17.8-14.5 32.2-32.2 32.2zm125.4-31.4c0 6.7-5.5 12.2-12.2 12.2h-1.5c-6.7 0-12.2-5.5-12.2-12.2v-1.5c0-6.7 5.5-12.2 12.2-12.2h1.5c6.7 0 12.2 5.5 12.2 12.2zm324.8 0c0 6.7-5.5 12.2-12.2 12.2h-230.2c-6.7 0-12.2-5.5-12.2-12.2v-1.5c0-6.7 5.5-12.2 12.2-12.2h230.2c6.7 0 12.2 5.5 12.2 12.2z"/>
		<path class="s1" d="m478.8 847.4h-1.5c-2.9 0-5.2 2.3-5.2 5.2v1.5c0 2.9 2.3 5.2 5.2 5.2h1.5c2.9 0 5.2-2.3 5.2-5.2v-1.5c0-2.9-2.3-5.2-5.2-5.2z"/>
		<path class="s1" d="m803.6 847.4h-230.2c-2.9 0-5.2 2.3-5.2 5.2v1.5c0 2.9 2.3 5.2 5.2 5.2h230.2c2.9 0 5.2-2.3 5.2-5.2v-1.5c0-2.9-2.3-5.2-5.2-5.2z"/>
		<path class="s2" d="m877.7 777.6c8.5-5.5 14.2-15.1 14.2-26v-95.8c0-10.9-5.6-20.5-14.2-26 8.5-5.5 14.2-15.1 14.2-26v-95.8c0-17.1-13.9-31-31-31h-49.2c-2.8 0-5 2.2-5 5 0 2.8 2.2 5 5 5h0.1 49.1c11.6 0 21 9.4 21 21v95.8c0 11.6-9.4 21-21 21h-45.3-0.1c-2.7 0.1-4.9 2.3-4.9 5 0 2.8 2.2 5 5 5h45.1c0.1 0 0.1 0 0.2 0 11.6 0 21 9.4 21 21v95.8c0 11.6-9.4 21-21 21h-559.4c-11.6 0-21-9.4-21-21v-95.8c0-11.6 9.4-21 21-21h219.8c0.1 0 0.1 0 0.2 0h58.8c2.8 0 5-2.2 5-5 0-2.7-2.1-4.8-4.7-5q-0.15 0-0.3 0h-278.8c-11.6 0-21-9.4-21-21v-95.8c0-11.6 9.4-21 21-21h287.1 0.3c2.8 0 5-2.2 5-5 0-2.8-2.2-5-5-5h-287.4c-17.1 0-31 13.9-31 31v95.8c0 10.9 5.6 20.5 14.2 26-8.5 5.5-14.2 15.1-14.2 26v95.8c0 10.9 5.7 20.5 14.2 26-8.5 5.5-14.2 15.1-14.2 26v95.8c0 17.1 13.9 31 31 31h51.5v7.8c0 16.5 13.5 30 30 30h69.6c16.5 0 30-13.5 30-30v-7.8h197.2v7.8c0 16.5 13.5 30 30 30h69.6c16.5 0 30-13.5 30-30v-7.8h51.5c17.1 0 31-13.9 31-31v-95.8c0-10.8-5.6-20.5-14.2-26zm4.2 121.8c0 11.6-9.4 21-21 21h-56.5-119.6-207.2-119.6-56.5c-11.6 0-21-9.4-21-21v-95.8c0-11.6 9.4-21 21-21h559.4c11.6 0 21 9.4 21 21zm-82.5 38.8c0 11-9 20-20 20h-69.6c-11 0-20-9-20-20v-7.8h109.6zm-326.8 0c0 11-9 20-20 20h-69.6c-11 0-20-9-20-20v-7.8h109.6z"/>
		<path class="s3" d="m365.6 828.2c-13.9 0-25.2 11.3-25.2 25.2 0 13.9 11.3 25.2 25.2 25.2 13.9 0 25.2-11.3 25.2-25.2 0-13.9-11.3-25.2-25.2-25.2z"/>
		<path class="s2" d="m365.6 821.2c-17.7 0-32.2 14.4-32.2 32.2 0 17.8 14.4 32.2 32.2 32.2 17.7 0 32.2-14.4 32.2-32.2 0-17.8-14.5-32.2-32.2-32.2zm0 57.3c-13.9 0-25.2-11.3-25.2-25.2 0-13.9 11.3-25.2 25.2-25.2 13.9 0 25.2 11.3 25.2 25.2 0 13.9-11.3 25.2-25.2 25.2z"/>
		<path class="s2" d="m803.6 840.4h-230.2c-6.7 0-12.2 5.5-12.2 12.2v1.5c0 6.7 5.5 12.2 12.2 12.2h230.2c6.7 0 12.2-5.5 12.2-12.2v-1.5c0-6.7-5.5-12.2-12.2-12.2zm5.2 13.7c0 2.9-2.3 5.2-5.2 5.2h-230.2c-2.9 0-5.2-2.3-5.2-5.2v-1.5c0-2.9 2.3-5.2 5.2-5.2h230.2c2.9 0 5.2 2.3 5.2 5.2z"/>
		<path class="s2" d="m478.8 840.4h-1.5c-6.7 0-12.2 5.5-12.2 12.2v1.5c0 6.7 5.5 12.2 12.2 12.2h1.5c6.7 0 12.2-5.5 12.2-12.2v-1.5c0-6.7-5.5-12.2-12.2-12.2zm5.2 13.7c0 2.9-2.3 5.2-5.2 5.2h-1.5c-2.9 0-5.2-2.3-5.2-5.2v-1.5c0-2.9 2.3-5.2 5.2-5.2h1.5c2.9 0 5.2 2.3 5.2 5.2z"/>
		<path class="s1" d="m710.7 721.3c-0.6 0.7-1.2 1.3-1.9 1.9-2.7 2.3-6 3.5-9.5 3.5-0.5 0-0.9 0-1.4-0.1-4-0.4-7.6-2.2-10.1-5.3l-76.1-91.5h-26.4c0 2.8-2.2 5-5 5h-58.8c-0.1 0-0.1 0-0.2 0h-219.8c-11.6 0-21 9.4-21 21v95.8c0 11.6 9.4 21 21 21h559.4c11.6 0 21-9.4 21-21v-95.8c0-11.6-9.4-21-21-21-0.1 0-0.1 0-0.2 0h-45.1c-2.8 0-5-2.2-5-5h-23.8zm-345.1 16.4c-17.7 0-32.2-14.4-32.2-32.2 0-17.7 14.4-32.2 32.2-32.2 17.7 0 32.2 14.4 32.2 32.2 0 17.8-14.5 32.2-32.2 32.2zm125.4-31.5c0 6.7-5.5 12.2-12.2 12.2h-1.5c-6.7 0-12.2-5.5-12.2-12.2v-1.5c0-6.7 5.5-12.2 12.2-12.2h1.5c6.7 0 12.2 5.5 12.2 12.2zm156.1 12.3h-72.9c-7.1 0-12.9-5.8-13-12.9 0-7.1 5.8-13 13-13h60.2c1.9 0 3.5 1.6 3.5 3.5 0 1.9-1.6 3.5-3.5 3.5h-60.2c-3.3 0-6 2.7-6 5.9 0 3.3 2.7 5.9 6 5.9h72.9c1.9 0 3.5 1.6 3.5 3.5 0 1.9-1.6 3.6-3.5 3.6zm168.7-13c0 7.1-5.8 12.9-13 12.9h-58.2c-1.9 0-3.5-1.6-3.5-3.5 0-1.9 1.6-3.5 3.5-3.5h58.2c3.3 0 5.9-2.7 6-5.9 0-3.3-2.7-5.9-6-5.9h-41.1c-1.9 0-3.5-1.6-3.5-3.5 0-1.9 1.6-3.5 3.5-3.5h41.1c7.2 0 13 5.8 13 12.9z"/>
		<path class="s1" d="m478.8 699.6h-1.5c-2.9 0-5.2 2.3-5.2 5.2v1.5c0 2.9 2.3 5.2 5.2 5.2h1.5c2.9 0 5.2-2.3 5.2-5.2v-1.5c0-2.9-2.3-5.2-5.2-5.2z"/>
		<path class="s3" d="m365.6 680.4c-13.9 0-25.2 11.3-25.2 25.2 0 13.9 11.3 25.2 25.2 25.2 13.9 0 25.2-11.3 25.2-25.2 0-13.9-11.3-25.2-25.2-25.2z"/>
		<path class="s2" d="m365.6 673.4c-17.7 0-32.2 14.4-32.2 32.2 0 17.7 14.4 32.2 32.2 32.2 17.7 0 32.2-14.4 32.2-32.2 0-17.8-14.5-32.2-32.2-32.2zm0 57.3c-13.9 0-25.2-11.3-25.2-25.2 0-13.9 11.3-25.2 25.2-25.2 13.9 0 25.2 11.3 25.2 25.2 0 13.9-11.3 25.2-25.2 25.2z"/>
		<path class="s2" d="m647.1 711.5h-72.9c-3.3 0-5.9-2.7-6-5.9 0-3.3 2.7-5.9 6-5.9h60.2c1.9 0 3.5-1.6 3.5-3.5 0-1.9-1.6-3.5-3.5-3.5h-60.2c-7.1 0-13 5.8-13 13 0 7.1 5.8 12.9 13 12.9h72.9c1.9 0 3.5-1.6 3.5-3.5 0-1.9-1.6-3.6-3.5-3.6z"/>
		<path class="s2" d="m758.2 696.1c0 1.9 1.6 3.5 3.5 3.5h41.1c3.3 0 6 2.7 6 5.9 0 3.3-2.7 5.9-6 5.9h-58.2c-1.9 0-3.5 1.6-3.5 3.5 0 1.9 1.6 3.5 3.5 3.5h58.2c7.1 0 12.9-5.8 13-12.9 0-7.1-5.8-12.9-13-12.9h-41.1c-1.9 0-3.5 1.5-3.5 3.5z"/>
		<path class="s2" d="m478.8 692.6h-1.5c-6.7 0-12.2 5.5-12.2 12.2v1.5c0 6.7 5.5 12.2 12.2 12.2h1.5c6.7 0 12.2-5.5 12.2-12.2v-1.5c0-6.8-5.5-12.2-12.2-12.2zm5.2 13.6c0 2.9-2.3 5.2-5.2 5.2h-1.5c-2.9 0-5.2-2.3-5.2-5.2v-1.5c0-2.9 2.3-5.2 5.2-5.2h1.5c2.9 0 5.2 2.3 5.2 5.2z"/>
		<path class="s1" d="m280.5 508v95.8c0 11.6 9.4 21 21 21h278.8q0.15 0 0.3 0l1.8-30.2-32-38.4c-2.2-2.7-3.4-6-3.4-9.5 0-4 1.5-7.7 4.4-10.6 2.8-2.8 6.6-4.4 10.5-4.4h24.1l2.6-44.8h-287.1c-11.6 0.1-21 9.5-21 21.1zm184.6 49c0-6.7 5.5-12.2 12.2-12.2h1.5c6.7 0 12.2 5.5 12.2 12.2v1.5c0 6.7-5.5 12.2-12.2 12.2h-1.5c-6.7 0-12.2-5.5-12.2-12.2zm-99.5-31.5c17.7 0 32.2 14.4 32.2 32.2 0 17.8-14.4 32.2-32.2 32.2-17.7 0-32.2-14.4-32.2-32.2 0-17.8 14.5-32.2 32.2-32.2z"/>
		<path class="s1" d="m477.3 563.6h1.5c2.9 0 5.2-2.3 5.2-5.2v-1.4c0-2.9-2.3-5.2-5.2-5.2h-1.5c-2.9 0-5.2 2.3-5.2 5.2v1.5c0 2.8 2.3 5.1 5.2 5.1z"/>
		<path class="s1" d="m846.1 535.2c6.3 5.3 7.2 14.7 1.9 21l-33.3 40.1 0.8 28.5h0.1 45.3c11.6 0 21-9.4 21-21v-95.8c0-11.6-9.4-21-21-21h-49.1l1.2 44.7h23.6c3.4 0 6.8 1.2 9.5 3.5z"/>
		<path class="s3" d="m340.4 557.7c0 13.9 11.3 25.2 25.2 25.2 13.9 0 25.2-11.3 25.2-25.2 0-13.9-11.3-25.2-25.2-25.2-13.9 0-25.2 11.3-25.2 25.2z"/>
		<path class="s2" d="m365.6 589.9c17.7 0 32.2-14.4 32.2-32.2 0-17.8-14.4-32.2-32.2-32.2-17.7 0-32.2 14.4-32.2 32.2 0 17.8 14.5 32.2 32.2 32.2zm25.2-32.2c0 13.9-11.3 25.2-25.2 25.2-13.9 0-25.2-11.3-25.2-25.2 0-13.9 11.3-25.2 25.2-25.2 13.9 0 25.2 11.3 25.2 25.2z"/>
		<path class="s2" d="m477.3 570.6h1.5c6.7 0 12.2-5.5 12.2-12.2v-1.4c0-6.7-5.5-12.2-12.2-12.2h-1.5c-6.7 0-12.2 5.5-12.2 12.2v1.5c0 6.7 5.5 12.1 12.2 12.1zm-5.2-13.6c0-2.9 2.3-5.2 5.2-5.2h1.5c2.9 0 5.2 2.3 5.2 5.2v1.5c0 2.9-2.3 5.2-5.2 5.2h-1.5c-2.9 0-5.2-2.3-5.2-5.2z"/>
		<path class="s4" d="m363 938.2c0 11 9 20 20 20h69.6c11 0 20-9 20-20v-7.8h-109.6z"/>
		<path class="s4" d="m689.8 938.2c0 11 9 20 20 20h69.6c11 0 20-9 20-20v-7.8h-109.6z"/>
		<path class="s4" d="m585.4 541.8h-23.6c-1.3 0-2.5 0.5-3.5 1.4-0.9 0.9-1.4 2.2-1.4 3.5 0 1.1 0.4 2.2 1.1 3.1l25.1 30.2 41.5 49.8 70.8 85.1c0.8 1 2 1.6 3.3 1.8 1.3 0.1 2.6-0.3 3.6-1.1q0.3-0.3 0.6-0.6l70.8-85.1 40.5-48.7 26.1-31.3c1.7-2.1 1.5-5.2-0.6-6.9-0.9-0.7-2-1.1-3.2-1.1h-23.3-43.5v-228.3c0-2.7-2.2-4.9-4.9-4.9h-131.3c-1.3 0-2.6 0.5-3.5 1.4-0.9 0.9-1.4 2.2-1.4 3.5h-5 5v228.1h-43.2z"/>
		<path class="s2" d="m551.3 536.1c-2.8 2.8-4.4 6.6-4.4 10.6 0 3.5 1.2 6.8 3.4 9.5l32 38.4 29.3 35.2 76.1 91.5c2.6 3.1 6.1 5 10.1 5.3 0.5 0 0.9 0.1 1.4 0.1 3.5 0 6.8-1.2 9.5-3.5 0.7-0.6 1.3-1.2 1.9-1.9l76.1-91.5 27.9-33.6 33.3-40.1c5.3-6.3 4.4-15.8-1.9-21-2.7-2.2-6.1-3.5-9.5-3.5h-23.5-33.2v-218c0-8.2-6.7-14.9-14.9-14.9h-131.4c-4 0-7.7 1.5-10.5 4.4-2.8 2.8-4.4 6.6-4.4 10.6v218.1h-32.6-24.2c-3.9 0-7.7 1.5-10.5 4.3zm72.3-222.5h5c0-1.3 0.5-2.5 1.4-3.5 0.9-0.9 2.2-1.4 3.5-1.4h131.3c2.7 0 4.9 2.2 4.9 4.9v228.1h43.5 23.3c1.1 0 2.3 0.4 3.2 1.1 2.1 1.7 2.4 4.9 0.6 6.9l-26.1 31.3-40.5 48.7-70.7 85.2q-0.3 0.3-0.6 0.6c-1 0.8-2.3 1.2-3.6 1.1-1.3-0.1-2.5-0.7-3.3-1.8l-70.8-85.1-41.5-49.7-25.1-30.2c-0.7-0.9-1.1-2-1.1-3.1 0-1.3 0.5-2.6 1.4-3.5 0.9-0.9 2.2-1.4 3.5-1.4h23.6 43.2v-228.2z"/>
		<path class="s2" d="m227 509.9c-12.2-3.5-23.9-8.4-34.9-14.7l-3-1.7-28 23.9c-1.9 0.9-4.1 0.6-5.6-0.9l-44.1-44.1c-1.5-1.5-1.8-3.7-0.9-5.6l23.9-28.1-1.7-3c-6.3-11-11.2-22.7-14.7-34.8l-1-3.4-36.8-2.7c-2-0.7-3.3-2.5-3.3-4.7v-66.6c0-2.1 1.4-4 3.3-4.7l36.8-2.7 1-3.4c3.5-12.1 8.4-23.9 14.7-34.8l1.7-3-23.9-28c-0.9-1.9-0.6-4.1 0.9-5.6l44.1-44.1c1.5-1.5 3.8-1.8 5.6-0.9l28 23.9 3-1.7c11-6.3 22.7-11.2 34.9-14.7l3.4-1 2.7-36.7c0.7-2 2.5-3.3 4.7-3.3h66.6c2.1 0 4 1.4 4.7 3.3l2.7 36.7 3.4 1c12.2 3.5 23.9 8.4 34.9 14.7l3 1.7 28-23.9c1.9-0.9 4.1-0.6 5.6 0.9l44.1 44.1c1.5 1.5 1.8 3.8 0.9 5.6l-23.9 28 1.7 3.1c6.3 11 11.2 22.7 14.7 34.8l1 3.3 36.7 2.7c2 0.7 3.3 2.5 3.3 4.7v66.5c0 2.1-1.4 4-3.3 4.7l-36.7 2.7-1 3.4c-3.5 12.1-8.5 23.9-14.7 34.8-1.4 2.4-0.5 5.5 1.9 6.8 2.4 1.4 5.5 0.5 6.8-1.9 6.1-10.7 11-22 14.7-33.7l30.8-2.2 0.4-0.1c6.6-1.7 11.2-7.6 11.2-14.4v-66.6c0-6.8-4.6-12.8-11.2-14.4l-0.4-0.1-30.8-2.3c-3.3-10.6-7.6-20.9-12.9-30.6l20-23.5 0.2-0.4c3.4-5.8 2.5-13.3-2.3-18.1l-44.1-44.1c-4.8-4.8-12.2-5.7-18.1-2.3l-0.4 0.2-23.5 20c-9.8-5.3-20.1-9.6-30.7-12.9l-2.3-30.8-0.1-0.4c-1.7-6.6-7.6-11.2-14.4-11.2h-66.6c-6.8 0-12.8 4.6-14.4 11.2l-0.1 0.4-2.3 30.8c-10.6 3.3-20.9 7.6-30.7 12.9l-23.5-20-0.4-0.2c-5.8-3.4-13.3-2.5-18.1 2.3l-44 44c-4.8 4.8-5.7 12.2-2.3 18.1l0.2 0.4 20 23.5c-5.3 9.7-9.6 20-12.9 30.6l-30.8 2.3-0.4 0.1c-6.6 1.7-11.2 7.6-11.2 14.4v66.6c0 6.8 4.6 12.8 11.2 14.4l0.4 0.1 30.8 2.3c3.3 10.6 7.6 20.9 12.9 30.6l-20 23.5-0.2 0.4c-3.4 5.8-2.5 13.3 2.3 18.1l44.1 44.1c2.9 2.9 6.7 4.4 10.5 4.4 2.6 0 5.2-0.7 7.5-2l0.4-0.2 23.5-20c10.8 5.9 22.2 10.5 34 13.9 2.7 0.8 5.4-0.8 6.2-3.4 0.8-2.8-0.8-5.6-3.4-6.3z"/>
		<path class="s2" d="m271 257.3c-54.8 0-99.4 44.6-99.4 99.4 0 54.8 44.6 99.4 99.4 99.4 54.8 0 99.4-44.6 99.4-99.4 0-54.8-44.6-99.4-99.4-99.4zm0 188.8c-49.3 0-89.4-40.1-89.4-89.4 0-49.3 40.1-89.4 89.4-89.4 49.3 0 89.4 40.1 89.4 89.4 0 49.3-40.1 89.4-89.4 89.4z"/>
		<path class="s2" d="m564.7 219c34 0 61.6-27.6 61.6-61.6 0-34-27.6-61.6-61.6-61.6-34 0-61.6 27.6-61.6 61.6 0 34 27.7 61.6 61.6 61.6zm0-113.1c28.5 0 51.6 23.1 51.6 51.6 0 28.5-23.1 51.6-51.6 51.6-28.5 0-51.6-23.1-51.6-51.6 0-28.5 23.2-51.6 51.6-51.6z"/>
		<path class="s2" d="m448.5 188l0.4 0.1 17.3 1.3c1.8 5.6 4.1 11 6.8 16.2l-11.2 13.2-0.2 0.4c-2.5 4.3-1.8 9.7 1.7 13.2l26.5 26.5c3.5 3.5 8.9 4.2 13.2 1.7l0.4-0.2 13.2-11.2c5.2 2.7 10.6 5 16.2 6.8l1.3 17.3 0.1 0.4c1.3 4.8 5.6 8.2 10.6 8.2h39.9c5 0 9.4-3.4 10.6-8.2l0.1-0.4 1.3-17.3c5.6-1.8 11-4.1 16.2-6.8l13.2 11.2 0.4 0.2c4.3 2.5 9.7 1.8 13.2-1.7l26.5-26.5c3.5-3.5 4.2-8.9 1.7-13.2l-0.2-0.4-11.2-13.2c2.7-5.2 5-10.6 6.8-16.2l17.3-1.3 0.4-0.1c4.8-1.3 8.2-5.6 8.2-10.6v-39.9c0-5-3.4-9.4-8.2-10.6l-0.4-0.1-17.3-1.3c-1.8-5.6-4.1-11-6.8-16.2l11.2-13.2 0.2-0.4c2.5-4.3 1.8-9.8-1.7-13.3l-26.4-26.4c-3.5-3.5-9-4.2-13.3-1.7l-0.4 0.2-13.2 11.2c-5.2-2.7-10.6-5-16.2-6.8l-1.3-17.3-0.1-0.4c-1.2-4.8-5.6-8.2-10.6-8.2h-40c-4.9 0-9.3 3.4-10.6 8.2l-0.1 0.5-1.2 17.3c-5.6 1.8-11 4.1-16.2 6.8l-13.2-11.2-0.4-0.2c-4.3-2.5-9.7-1.8-13.2 1.7l-26.5 26.5c-3.5 3.5-4.2 8.9-1.7 13.2l0.2 0.4 11.2 13.2c-2.7 5.2-5 10.6-6.8 16.2l-17.3 1.3-0.4 0.1c-4.9 1.2-8.2 5.6-8.2 10.6v40c0 4.8 3.4 9.1 8.2 10.4zm1.8-50.5c0-0.3 0.2-0.7 0.5-0.8l23.1-1.7 1-3.4c2-7.1 4.9-14 8.6-20.5l1.7-3.1-15-17.6c-0.1-0.3 0-0.7 0.2-0.9l26.4-26.4c0.3-0.3 0.6-0.3 1-0.3l17.7 15 3-1.7c6.4-3.7 13.3-6.6 20.5-8.6l3.4-1 1.6-23.1c0.2-0.3 0.5-0.5 0.8-0.5h39.9c0.3 0 0.7 0.2 0.8 0.5l1.7 23.1 3.4 1c7.1 2 14 4.9 20.5 8.6l3 1.7 17.6-15c0.3-0.1 0.7 0 0.9 0.2l26.4 26.4c0.2 0.2 0.3 0.6 0.2 0.9l-15 17.6 1.7 3c3.7 6.4 6.6 13.3 8.6 20.5l1 3.4 23.1 1.7c0.3 0.2 0.5 0.5 0.5 0.8v39.9c0 0.4-0.2 0.7-0.5 0.9l-23.1 1.7-1 3.4c-2 7.1-5 14-8.6 20.5l-1.7 3 15 17.6c0.1 0.3 0 0.7-0.2 0.9l-26.4 26.4c-0.3 0.3-0.6 0.3-1 0.3l-17.6-15-3 1.7c-6.4 3.7-13.3 6.6-20.5 8.6l-3.4 1-1.7 23.1c-0.2 0.3-0.5 0.5-0.8 0.5h-39.9c-0.4 0-0.7-0.2-0.9-0.5l-1.7-23.1-3.3-1c-7.1-2-14-5-20.4-8.6l-3-1.7-17.7 15c-0.3 0.1-0.7 0-0.9-0.2l-26.4-26.4c-0.3-0.3-0.3-0.6-0.3-1l15-17.6-1.7-3c-3.7-6.4-6.6-13.3-8.6-20.5l-1-3.4-23.1-1.7c-0.3-0.2-0.5-0.5-0.5-0.8v-39.8z"/>
	</g>
</svg>